<svg xmlns="http://www.w3.org/2000/svg" viewBox="0 0 330 250" preserveAspectRatio="xMidYMid slice">
<title>Consulting Firm</title>
<defs>
<linearGradient id="bg" x1="0" y1="0" x2="0" y2="1"><stop offset="0" stop-color="#13132a"/><stop offset="1" stop-color="#07060f"/></linearGradient>
<radialGradient id="glow" cx="50%" cy="38%" r="55%"><stop offset="0" stop-color="#1d51ed" stop-opacity="0.62"/><stop offset="1" stop-color="#0f3bbd" stop-opacity="0"/></radialGradient>
<radialGradient id="b0"><stop offset="0" stop-color="#6d47f5"/><stop offset="0.6" stop-color="#6d47f5" stop-opacity="0.45"/><stop offset="1" stop-color="#6d47f5" stop-opacity="0"/></radialGradient><radialGradient id="b1"><stop offset="0.55" stop-color="#4795f5" stop-opacity="0.2"/><stop offset="0.85" stop-color="#4795f5" stop-opacity="0.75"/><stop offset="1" stop-color="#4795f5" stop-opacity="0"/></radialGradient><radialGradient id="b2"><stop offset="0" stop-color="#4767f5"/><stop offset="0.6" stop-color="#4767f5" stop-opacity="0.45"/><stop offset="1" stop-color="#4767f5" stop-opacity="0"/></radialGradient><radialGradient id="b3"><stop offset="0.55" stop-color="#6d47f5" stop-opacity="0.2"/><stop offset="0.85" stop-color="#6d47f5" stop-opacity="0.75"/><stop offset="1" stop-color="#6d47f5" stop-opacity="0"/></radialGradient><radialGradient id="b4"><stop offset="0" stop-color="#4795f5"/><stop offset="0.6" stop-color="#4795f5" stop-opacity="0.45"/><stop offset="1" stop-color="#4795f5" stop-opacity="0"/></radialGradient><radialGradient id="b5"><stop offset="0.55" stop-color="#4767f5" stop-opacity="0.2"/><stop offset="0.85" stop-color="#4767f5" stop-opacity="0.75"/><stop offset="1" stop-color="#4767f5" stop-opacity="0"/></radialGradient><radialGradient id="b6"><stop offset="0" stop-color="#6d47f5"/><stop offset="0.6" stop-color="#6d47f5" stop-opacity="0.45"/><stop offset="1" stop-color="#6d47f5" stop-opacity="0"/></radialGradient><radialGradient id="b7"><stop offset="0.55" stop-color="#4795f5" stop-opacity="0.2"/><stop offset="0.85" stop-color="#4795f5" stop-opacity="0.75"/><stop offset="1" stop-color="#4795f5" stop-opacity="0"/></radialGradient><radialGradient id="b8"><stop offset="0" stop-color="#4767f5"/><stop offset="0.6" stop-color="#4767f5" stop-opacity="0.45"/><stop offset="1" stop-color="#4767f5" stop-opacity="0"/></radialGradient>
<linearGradient id="floor" x1="0" y1="0" x2="0" y2="1"><stop offset="0" stop-color="#19264d" stop-opacity="0.55"/><stop offset="1" stop-color="#05060d" stop-opacity="0.95"/></linearGradient>
<radialGradient id="vig" cx="50%" cy="45%" r="75%"><stop offset="0.55" stop-color="#000" stop-opacity="0"/><stop offset="1" stop-color="#000" stop-opacity="0.6"/></radialGradient>
<linearGradient id="fade" x1="0" y1="0" x2="0" y2="1"><stop offset="0" stop-color="#fff" stop-opacity="0.9"/><stop offset="1" stop-color="#fff" stop-opacity="0"/></linearGradient>
<mask id="refl"><rect x="0" y="170" width="330" height="80" fill="url(#fade)"/></mask>
</defs>
<rect width="330" height="250" fill="url(#bg)"/>
<rect width="330" height="250" fill="url(#glow)"/>
<circle cx="301" cy="122" r="9" fill="url(#b0)" opacity="0.45"/><circle cx="95" cy="25" r="13" fill="url(#b1)" opacity="0.74"/><circle cx="109" cy="104" r="24" fill="url(#b2)" opacity="0.41"/><circle cx="122" cy="48" r="22" fill="url(#b3)" opacity="0.49"/><circle cx="266" cy="92" r="16" fill="url(#b4)" opacity="0.72"/><circle cx="89" cy="103" r="18" fill="url(#b5)" opacity="0.35"/><circle cx="195" cy="101" r="22" fill="url(#b6)" opacity="0.37"/><circle cx="241" cy="21" r="12" fill="url(#b7)" opacity="0.70"/><circle cx="223" cy="105" r="12" fill="url(#b8)" opacity="0.51"/>
<rect y="170" width="330" height="80" fill="url(#floor)"/>
<rect y="169.5" width="330" height="1" fill="#6e90f7" opacity="0.35"/>
<g mask="url(#refl)"><g transform="translate(110 213) scale(4.6 -4.6)" fill="none" stroke="#9eb5fa" stroke-width="1.5" stroke-linecap="round" stroke-linejoin="round" opacity="0.22">
  <path d="M16 20V4a2 2 0 0 0-2-2h-4a2 2 0 0 0-2 2v16" />
  <rect width="20" height="14" x="2" y="6" rx="2" />
</g></g>
<g transform="translate(110 57) scale(4.6)" fill="none" stroke="#668cff" stroke-width="2.4" stroke-linecap="round" stroke-linejoin="round" opacity="0.28">
  <path d="M16 20V4a2 2 0 0 0-2-2h-4a2 2 0 0 0-2 2v16" />
  <rect width="20" height="14" x="2" y="6" rx="2" />
</g>
<g transform="translate(110 57) scale(4.6)" fill="none" stroke="#d8e1fd" stroke-width="1.25" stroke-linecap="round" stroke-linejoin="round" opacity="0.95">
  <path d="M16 20V4a2 2 0 0 0-2-2h-4a2 2 0 0 0-2 2v16" />
  <rect width="20" height="14" x="2" y="6" rx="2" />
</g>
<rect width="330" height="250" fill="url(#vig)"/>
</svg>
