<svg xmlns="http://www.w3.org/2000/svg" viewBox="0 0 330 250" preserveAspectRatio="xMidYMid slice">
<title>Hotel</title>
<defs>
<linearGradient id="bg" x1="0" y1="0" x2="0" y2="1"><stop offset="0" stop-color="#2a2a13"/><stop offset="1" stop-color="#0d0f06"/></linearGradient>
<radialGradient id="glow" cx="50%" cy="38%" r="55%"><stop offset="0" stop-color="#edb91d" stop-opacity="0.62"/><stop offset="1" stop-color="#bd910f" stop-opacity="0"/></radialGradient>
<radialGradient id="b0"><stop offset="0" stop-color="#d0f547"/><stop offset="0.6" stop-color="#d0f547" stop-opacity="0.45"/><stop offset="1" stop-color="#d0f547" stop-opacity="0"/></radialGradient><radialGradient id="b1"><stop offset="0.55" stop-color="#f5a747" stop-opacity="0.2"/><stop offset="0.85" stop-color="#f5a747" stop-opacity="0.75"/><stop offset="1" stop-color="#f5a747" stop-opacity="0"/></radialGradient><radialGradient id="b2"><stop offset="0" stop-color="#f5d547"/><stop offset="0.6" stop-color="#f5d547" stop-opacity="0.45"/><stop offset="1" stop-color="#f5d547" stop-opacity="0"/></radialGradient><radialGradient id="b3"><stop offset="0.55" stop-color="#d0f547" stop-opacity="0.2"/><stop offset="0.85" stop-color="#d0f547" stop-opacity="0.75"/><stop offset="1" stop-color="#d0f547" stop-opacity="0"/></radialGradient><radialGradient id="b4"><stop offset="0" stop-color="#f5a747"/><stop offset="0.6" stop-color="#f5a747" stop-opacity="0.45"/><stop offset="1" stop-color="#f5a747" stop-opacity="0"/></radialGradient><radialGradient id="b5"><stop offset="0.55" stop-color="#f5d547" stop-opacity="0.2"/><stop offset="0.85" stop-color="#f5d547" stop-opacity="0.75"/><stop offset="1" stop-color="#f5d547" stop-opacity="0"/></radialGradient><radialGradient id="b6"><stop offset="0" stop-color="#d0f547"/><stop offset="0.6" stop-color="#d0f547" stop-opacity="0.45"/><stop offset="1" stop-color="#d0f547" stop-opacity="0"/></radialGradient><radialGradient id="b7"><stop offset="0.55" stop-color="#f5a747" stop-opacity="0.2"/><stop offset="0.85" stop-color="#f5a747" stop-opacity="0.75"/><stop offset="1" stop-color="#f5a747" stop-opacity="0"/></radialGradient><radialGradient id="b8"><stop offset="0" stop-color="#f5d547"/><stop offset="0.6" stop-color="#f5d547" stop-opacity="0.45"/><stop offset="1" stop-color="#f5d547" stop-opacity="0"/></radialGradient>
<linearGradient id="floor" x1="0" y1="0" x2="0" y2="1"><stop offset="0" stop-color="#4d4019" stop-opacity="0.55"/><stop offset="1" stop-color="#05060d" stop-opacity="0.95"/></linearGradient>
<radialGradient id="vig" cx="50%" cy="45%" r="75%"><stop offset="0.55" stop-color="#000" stop-opacity="0"/><stop offset="1" stop-color="#000" stop-opacity="0.6"/></radialGradient>
<linearGradient id="fade" x1="0" y1="0" x2="0" y2="1"><stop offset="0" stop-color="#fff" stop-opacity="0.9"/><stop offset="1" stop-color="#fff" stop-opacity="0"/></linearGradient>
<mask id="refl"><rect x="0" y="170" width="330" height="80" fill="url(#fade)"/></mask>
</defs>
<rect width="330" height="250" fill="url(#bg)"/>
<rect width="330" height="250" fill="url(#glow)"/>
<circle cx="251" cy="132" r="14" fill="url(#b0)" opacity="0.40"/><circle cx="62" cy="55" r="9" fill="url(#b1)" opacity="0.45"/><circle cx="213" cy="132" r="23" fill="url(#b2)" opacity="0.44"/><circle cx="273" cy="127" r="19" fill="url(#b3)" opacity="0.32"/><circle cx="113" cy="73" r="15" fill="url(#b4)" opacity="0.74"/><circle cx="67" cy="41" r="10" fill="url(#b5)" opacity="0.62"/><circle cx="277" cy="115" r="14" fill="url(#b6)" opacity="0.50"/><circle cx="68" cy="116" r="19" fill="url(#b7)" opacity="0.54"/><circle cx="27" cy="123" r="9" fill="url(#b8)" opacity="0.61"/>
<rect y="170" width="330" height="80" fill="url(#floor)"/>
<rect y="169.5" width="330" height="1" fill="#f7d56e" opacity="0.35"/>
<g mask="url(#refl)"><g transform="translate(110 213) scale(4.6 -4.6)" fill="none" stroke="#fae39e" stroke-width="1.5" stroke-linecap="round" stroke-linejoin="round" opacity="0.22">
  <path d="M2 20v-8a2 2 0 0 1 2-2h16a2 2 0 0 1 2 2v8" />
  <path d="M4 10V6a2 2 0 0 1 2-2h12a2 2 0 0 1 2 2v4" />
  <path d="M12 4v6" />
  <path d="M2 18h20" />
</g></g>
<g transform="translate(110 57) scale(4.6)" fill="none" stroke="#ffd966" stroke-width="2.4" stroke-linecap="round" stroke-linejoin="round" opacity="0.28">
  <path d="M2 20v-8a2 2 0 0 1 2-2h16a2 2 0 0 1 2 2v8" />
  <path d="M4 10V6a2 2 0 0 1 2-2h12a2 2 0 0 1 2 2v4" />
  <path d="M12 4v6" />
  <path d="M2 18h20" />
</g>
<g transform="translate(110 57) scale(4.6)" fill="none" stroke="#fdf4d8" stroke-width="1.25" stroke-linecap="round" stroke-linejoin="round" opacity="0.95">
  <path d="M2 20v-8a2 2 0 0 1 2-2h16a2 2 0 0 1 2 2v8" />
  <path d="M4 10V6a2 2 0 0 1 2-2h12a2 2 0 0 1 2 2v4" />
  <path d="M12 4v6" />
  <path d="M2 18h20" />
</g>
<rect width="330" height="250" fill="url(#vig)"/>
</svg>
