<svg xmlns="http://www.w3.org/2000/svg" viewBox="0 0 330 250" preserveAspectRatio="xMidYMid slice">
<title>Medical Clinic</title>
<defs>
<linearGradient id="bg" x1="0" y1="0" x2="0" y2="1"><stop offset="0" stop-color="#13252a"/><stop offset="1" stop-color="#060b0f"/></linearGradient>
<radialGradient id="glow" cx="50%" cy="38%" r="55%"><stop offset="0" stop-color="#1deded" stop-opacity="0.62"/><stop offset="1" stop-color="#0fbdbd" stop-opacity="0"/></radialGradient>
<radialGradient id="b0"><stop offset="0" stop-color="#47a4f5"/><stop offset="0.6" stop-color="#47a4f5" stop-opacity="0.45"/><stop offset="1" stop-color="#47a4f5" stop-opacity="0"/></radialGradient><radialGradient id="b1"><stop offset="0.55" stop-color="#47f5d2" stop-opacity="0.2"/><stop offset="0.85" stop-color="#47f5d2" stop-opacity="0.75"/><stop offset="1" stop-color="#47f5d2" stop-opacity="0"/></radialGradient><radialGradient id="b2"><stop offset="0" stop-color="#47eaf5"/><stop offset="0.6" stop-color="#47eaf5" stop-opacity="0.45"/><stop offset="1" stop-color="#47eaf5" stop-opacity="0"/></radialGradient><radialGradient id="b3"><stop offset="0.55" stop-color="#47a4f5" stop-opacity="0.2"/><stop offset="0.85" stop-color="#47a4f5" stop-opacity="0.75"/><stop offset="1" stop-color="#47a4f5" stop-opacity="0"/></radialGradient><radialGradient id="b4"><stop offset="0" stop-color="#47f5d2"/><stop offset="0.6" stop-color="#47f5d2" stop-opacity="0.45"/><stop offset="1" stop-color="#47f5d2" stop-opacity="0"/></radialGradient><radialGradient id="b5"><stop offset="0.55" stop-color="#47eaf5" stop-opacity="0.2"/><stop offset="0.85" stop-color="#47eaf5" stop-opacity="0.75"/><stop offset="1" stop-color="#47eaf5" stop-opacity="0"/></radialGradient><radialGradient id="b6"><stop offset="0" stop-color="#47a4f5"/><stop offset="0.6" stop-color="#47a4f5" stop-opacity="0.45"/><stop offset="1" stop-color="#47a4f5" stop-opacity="0"/></radialGradient><radialGradient id="b7"><stop offset="0.55" stop-color="#47f5d2" stop-opacity="0.2"/><stop offset="0.85" stop-color="#47f5d2" stop-opacity="0.75"/><stop offset="1" stop-color="#47f5d2" stop-opacity="0"/></radialGradient><radialGradient id="b8"><stop offset="0" stop-color="#47eaf5"/><stop offset="0.6" stop-color="#47eaf5" stop-opacity="0.45"/><stop offset="1" stop-color="#47eaf5" stop-opacity="0"/></radialGradient>
<linearGradient id="floor" x1="0" y1="0" x2="0" y2="1"><stop offset="0" stop-color="#194d4d" stop-opacity="0.55"/><stop offset="1" stop-color="#05060d" stop-opacity="0.95"/></linearGradient>
<radialGradient id="vig" cx="50%" cy="45%" r="75%"><stop offset="0.55" stop-color="#000" stop-opacity="0"/><stop offset="1" stop-color="#000" stop-opacity="0.6"/></radialGradient>
<linearGradient id="fade" x1="0" y1="0" x2="0" y2="1"><stop offset="0" stop-color="#fff" stop-opacity="0.9"/><stop offset="1" stop-color="#fff" stop-opacity="0"/></linearGradient>
<mask id="refl"><rect x="0" y="170" width="330" height="80" fill="url(#fade)"/></mask>
</defs>
<rect width="330" height="250" fill="url(#bg)"/>
<rect width="330" height="250" fill="url(#glow)"/>
<circle cx="127" cy="101" r="17" fill="url(#b0)" opacity="0.48"/><circle cx="194" cy="130" r="20" fill="url(#b1)" opacity="0.75"/><circle cx="228" cy="109" r="24" fill="url(#b2)" opacity="0.67"/><circle cx="80" cy="69" r="17" fill="url(#b3)" opacity="0.65"/><circle cx="73" cy="22" r="8" fill="url(#b4)" opacity="0.67"/><circle cx="80" cy="84" r="21" fill="url(#b5)" opacity="0.63"/><circle cx="252" cy="52" r="17" fill="url(#b6)" opacity="0.79"/><circle cx="173" cy="59" r="26" fill="url(#b7)" opacity="0.54"/><circle cx="255" cy="21" r="24" fill="url(#b8)" opacity="0.55"/>
<rect y="170" width="330" height="80" fill="url(#floor)"/>
<rect y="169.5" width="330" height="1" fill="#6ef7f7" opacity="0.35"/>
<g mask="url(#refl)"><g transform="translate(110 213) scale(4.6 -4.6)" fill="none" stroke="#9efafa" stroke-width="1.5" stroke-linecap="round" stroke-linejoin="round" opacity="0.22">
  <path d="M11 2v2" />
  <path d="M5 2v2" />
  <path d="M5 3H4a2 2 0 0 0-2 2v4a6 6 0 0 0 12 0V5a2 2 0 0 0-2-2h-1" />
  <path d="M8 15a6 6 0 0 0 12 0v-3" />
  <circle cx="20" cy="10" r="2" />
</g></g>
<g transform="translate(110 57) scale(4.6)" fill="none" stroke="#66ffff" stroke-width="2.4" stroke-linecap="round" stroke-linejoin="round" opacity="0.28">
  <path d="M11 2v2" />
  <path d="M5 2v2" />
  <path d="M5 3H4a2 2 0 0 0-2 2v4a6 6 0 0 0 12 0V5a2 2 0 0 0-2-2h-1" />
  <path d="M8 15a6 6 0 0 0 12 0v-3" />
  <circle cx="20" cy="10" r="2" />
</g>
<g transform="translate(110 57) scale(4.6)" fill="none" stroke="#d8fdfd" stroke-width="1.25" stroke-linecap="round" stroke-linejoin="round" opacity="0.95">
  <path d="M11 2v2" />
  <path d="M5 2v2" />
  <path d="M5 3H4a2 2 0 0 0-2 2v4a6 6 0 0 0 12 0V5a2 2 0 0 0-2-2h-1" />
  <path d="M8 15a6 6 0 0 0 12 0v-3" />
  <circle cx="20" cy="10" r="2" />
</g>
<rect width="330" height="250" fill="url(#vig)"/>
</svg>
