<svg xmlns="http://www.w3.org/2000/svg" viewBox="0 0 330 250" preserveAspectRatio="xMidYMid slice">
<title>Optometry Clinic</title>
<defs>
<linearGradient id="bg" x1="0" y1="0" x2="0" y2="1"><stop offset="0" stop-color="#131f2a"/><stop offset="1" stop-color="#06090f"/></linearGradient>
<radialGradient id="glow" cx="50%" cy="38%" r="55%"><stop offset="0" stop-color="#1db9ed" stop-opacity="0.62"/><stop offset="1" stop-color="#0f91bd" stop-opacity="0"/></radialGradient>
<radialGradient id="b0"><stop offset="0" stop-color="#4778f5"/><stop offset="0.6" stop-color="#4778f5" stop-opacity="0.45"/><stop offset="1" stop-color="#4778f5" stop-opacity="0"/></radialGradient><radialGradient id="b1"><stop offset="0.55" stop-color="#47edf5" stop-opacity="0.2"/><stop offset="0.85" stop-color="#47edf5" stop-opacity="0.75"/><stop offset="1" stop-color="#47edf5" stop-opacity="0"/></radialGradient><radialGradient id="b2"><stop offset="0" stop-color="#47bef5"/><stop offset="0.6" stop-color="#47bef5" stop-opacity="0.45"/><stop offset="1" stop-color="#47bef5" stop-opacity="0"/></radialGradient><radialGradient id="b3"><stop offset="0.55" stop-color="#4778f5" stop-opacity="0.2"/><stop offset="0.85" stop-color="#4778f5" stop-opacity="0.75"/><stop offset="1" stop-color="#4778f5" stop-opacity="0"/></radialGradient><radialGradient id="b4"><stop offset="0" stop-color="#47edf5"/><stop offset="0.6" stop-color="#47edf5" stop-opacity="0.45"/><stop offset="1" stop-color="#47edf5" stop-opacity="0"/></radialGradient><radialGradient id="b5"><stop offset="0.55" stop-color="#47bef5" stop-opacity="0.2"/><stop offset="0.85" stop-color="#47bef5" stop-opacity="0.75"/><stop offset="1" stop-color="#47bef5" stop-opacity="0"/></radialGradient><radialGradient id="b6"><stop offset="0" stop-color="#4778f5"/><stop offset="0.6" stop-color="#4778f5" stop-opacity="0.45"/><stop offset="1" stop-color="#4778f5" stop-opacity="0"/></radialGradient><radialGradient id="b7"><stop offset="0.55" stop-color="#47edf5" stop-opacity="0.2"/><stop offset="0.85" stop-color="#47edf5" stop-opacity="0.75"/><stop offset="1" stop-color="#47edf5" stop-opacity="0"/></radialGradient><radialGradient id="b8"><stop offset="0" stop-color="#47bef5"/><stop offset="0.6" stop-color="#47bef5" stop-opacity="0.45"/><stop offset="1" stop-color="#47bef5" stop-opacity="0"/></radialGradient>
<linearGradient id="floor" x1="0" y1="0" x2="0" y2="1"><stop offset="0" stop-color="#19404d" stop-opacity="0.55"/><stop offset="1" stop-color="#05060d" stop-opacity="0.95"/></linearGradient>
<radialGradient id="vig" cx="50%" cy="45%" r="75%"><stop offset="0.55" stop-color="#000" stop-opacity="0"/><stop offset="1" stop-color="#000" stop-opacity="0.6"/></radialGradient>
<linearGradient id="fade" x1="0" y1="0" x2="0" y2="1"><stop offset="0" stop-color="#fff" stop-opacity="0.9"/><stop offset="1" stop-color="#fff" stop-opacity="0"/></linearGradient>
<mask id="refl"><rect x="0" y="170" width="330" height="80" fill="url(#fade)"/></mask>
</defs>
<rect width="330" height="250" fill="url(#bg)"/>
<rect width="330" height="250" fill="url(#glow)"/>
<circle cx="135" cy="72" r="24" fill="url(#b0)" opacity="0.40"/><circle cx="259" cy="70" r="26" fill="url(#b1)" opacity="0.36"/><circle cx="253" cy="93" r="18" fill="url(#b2)" opacity="0.36"/><circle cx="90" cy="105" r="25" fill="url(#b3)" opacity="0.40"/><circle cx="24" cy="83" r="24" fill="url(#b4)" opacity="0.63"/><circle cx="72" cy="108" r="15" fill="url(#b5)" opacity="0.67"/><circle cx="171" cy="107" r="9" fill="url(#b6)" opacity="0.56"/><circle cx="194" cy="134" r="9" fill="url(#b7)" opacity="0.66"/><circle cx="269" cy="81" r="9" fill="url(#b8)" opacity="0.59"/>
<rect y="170" width="330" height="80" fill="url(#floor)"/>
<rect y="169.5" width="330" height="1" fill="#6ed5f7" opacity="0.35"/>
<g mask="url(#refl)"><g transform="translate(110 213) scale(4.6 -4.6)" fill="none" stroke="#9ee3fa" stroke-width="1.5" stroke-linecap="round" stroke-linejoin="round" opacity="0.22">
  <path d="M2.062 12.348a1 1 0 0 1 0-.696 10.75 10.75 0 0 1 19.876 0 1 1 0 0 1 0 .696 10.75 10.75 0 0 1-19.876 0" />
  <circle cx="12" cy="12" r="3" />
</g></g>
<g transform="translate(110 57) scale(4.6)" fill="none" stroke="#66d9ff" stroke-width="2.4" stroke-linecap="round" stroke-linejoin="round" opacity="0.28">
  <path d="M2.062 12.348a1 1 0 0 1 0-.696 10.75 10.75 0 0 1 19.876 0 1 1 0 0 1 0 .696 10.75 10.75 0 0 1-19.876 0" />
  <circle cx="12" cy="12" r="3" />
</g>
<g transform="translate(110 57) scale(4.6)" fill="none" stroke="#d8f4fd" stroke-width="1.25" stroke-linecap="round" stroke-linejoin="round" opacity="0.95">
  <path d="M2.062 12.348a1 1 0 0 1 0-.696 10.75 10.75 0 0 1 19.876 0 1 1 0 0 1 0 .696 10.75 10.75 0 0 1-19.876 0" />
  <circle cx="12" cy="12" r="3" />
</g>
<rect width="330" height="250" fill="url(#vig)"/>
</svg>
