<svg xmlns="http://www.w3.org/2000/svg" viewBox="0 0 330 250" preserveAspectRatio="xMidYMid slice">
<title>Recruitment Agency</title>
<defs>
<linearGradient id="bg" x1="0" y1="0" x2="0" y2="1"><stop offset="0" stop-color="#18132a"/><stop offset="1" stop-color="#09060f"/></linearGradient>
<radialGradient id="glow" cx="50%" cy="38%" r="55%"><stop offset="0" stop-color="#1d1ded" stop-opacity="0.62"/><stop offset="1" stop-color="#0f0fbd" stop-opacity="0"/></radialGradient>
<radialGradient id="b0"><stop offset="0" stop-color="#9847f5"/><stop offset="0.6" stop-color="#9847f5" stop-opacity="0.45"/><stop offset="1" stop-color="#9847f5" stop-opacity="0"/></radialGradient><radialGradient id="b1"><stop offset="0.55" stop-color="#476af5" stop-opacity="0.2"/><stop offset="0.85" stop-color="#476af5" stop-opacity="0.75"/><stop offset="1" stop-color="#476af5" stop-opacity="0"/></radialGradient><radialGradient id="b2"><stop offset="0" stop-color="#5347f5"/><stop offset="0.6" stop-color="#5347f5" stop-opacity="0.45"/><stop offset="1" stop-color="#5347f5" stop-opacity="0"/></radialGradient><radialGradient id="b3"><stop offset="0.55" stop-color="#9847f5" stop-opacity="0.2"/><stop offset="0.85" stop-color="#9847f5" stop-opacity="0.75"/><stop offset="1" stop-color="#9847f5" stop-opacity="0"/></radialGradient><radialGradient id="b4"><stop offset="0" stop-color="#476af5"/><stop offset="0.6" stop-color="#476af5" stop-opacity="0.45"/><stop offset="1" stop-color="#476af5" stop-opacity="0"/></radialGradient><radialGradient id="b5"><stop offset="0.55" stop-color="#5347f5" stop-opacity="0.2"/><stop offset="0.85" stop-color="#5347f5" stop-opacity="0.75"/><stop offset="1" stop-color="#5347f5" stop-opacity="0"/></radialGradient><radialGradient id="b6"><stop offset="0" stop-color="#9847f5"/><stop offset="0.6" stop-color="#9847f5" stop-opacity="0.45"/><stop offset="1" stop-color="#9847f5" stop-opacity="0"/></radialGradient><radialGradient id="b7"><stop offset="0.55" stop-color="#476af5" stop-opacity="0.2"/><stop offset="0.85" stop-color="#476af5" stop-opacity="0.75"/><stop offset="1" stop-color="#476af5" stop-opacity="0"/></radialGradient><radialGradient id="b8"><stop offset="0" stop-color="#5347f5"/><stop offset="0.6" stop-color="#5347f5" stop-opacity="0.45"/><stop offset="1" stop-color="#5347f5" stop-opacity="0"/></radialGradient>
<linearGradient id="floor" x1="0" y1="0" x2="0" y2="1"><stop offset="0" stop-color="#191a4d" stop-opacity="0.55"/><stop offset="1" stop-color="#05060d" stop-opacity="0.95"/></linearGradient>
<radialGradient id="vig" cx="50%" cy="45%" r="75%"><stop offset="0.55" stop-color="#000" stop-opacity="0"/><stop offset="1" stop-color="#000" stop-opacity="0.6"/></radialGradient>
<linearGradient id="fade" x1="0" y1="0" x2="0" y2="1"><stop offset="0" stop-color="#fff" stop-opacity="0.9"/><stop offset="1" stop-color="#fff" stop-opacity="0"/></linearGradient>
<mask id="refl"><rect x="0" y="170" width="330" height="80" fill="url(#fade)"/></mask>
</defs>
<rect width="330" height="250" fill="url(#bg)"/>
<rect width="330" height="250" fill="url(#glow)"/>
<circle cx="229" cy="26" r="24" fill="url(#b0)" opacity="0.67"/><circle cx="151" cy="90" r="8" fill="url(#b1)" opacity="0.65"/><circle cx="212" cy="111" r="25" fill="url(#b2)" opacity="0.35"/><circle cx="294" cy="76" r="23" fill="url(#b3)" opacity="0.41"/><circle cx="189" cy="47" r="19" fill="url(#b4)" opacity="0.60"/><circle cx="146" cy="65" r="22" fill="url(#b5)" opacity="0.41"/><circle cx="156" cy="82" r="18" fill="url(#b6)" opacity="0.57"/><circle cx="202" cy="91" r="18" fill="url(#b7)" opacity="0.60"/><circle cx="279" cy="23" r="19" fill="url(#b8)" opacity="0.39"/>
<rect y="170" width="330" height="80" fill="url(#floor)"/>
<rect y="169.5" width="330" height="1" fill="#6e6ef7" opacity="0.35"/>
<g mask="url(#refl)"><g transform="translate(110 213) scale(4.6 -4.6)" fill="none" stroke="#9e9efa" stroke-width="1.5" stroke-linecap="round" stroke-linejoin="round" opacity="0.22">
  <circle cx="10" cy="7" r="4" />
  <path d="M10.3 15H7a4 4 0 0 0-4 4v2" />
  <circle cx="17" cy="17" r="3" />
  <path d="m21 21-1.9-1.9" />
</g></g>
<g transform="translate(110 57) scale(4.6)" fill="none" stroke="#6666ff" stroke-width="2.4" stroke-linecap="round" stroke-linejoin="round" opacity="0.28">
  <circle cx="10" cy="7" r="4" />
  <path d="M10.3 15H7a4 4 0 0 0-4 4v2" />
  <circle cx="17" cy="17" r="3" />
  <path d="m21 21-1.9-1.9" />
</g>
<g transform="translate(110 57) scale(4.6)" fill="none" stroke="#d8d8fd" stroke-width="1.25" stroke-linecap="round" stroke-linejoin="round" opacity="0.95">
  <circle cx="10" cy="7" r="4" />
  <path d="M10.3 15H7a4 4 0 0 0-4 4v2" />
  <circle cx="17" cy="17" r="3" />
  <path d="m21 21-1.9-1.9" />
</g>
<rect width="330" height="250" fill="url(#vig)"/>
</svg>
