<svg xmlns="http://www.w3.org/2000/svg" viewBox="0 0 330 250" preserveAspectRatio="xMidYMid slice">
<title>Wedding Planner</title>
<defs>
<linearGradient id="bg" x1="0" y1="0" x2="0" y2="1"><stop offset="0" stop-color="#2a1316"/><stop offset="1" stop-color="#0f0606"/></linearGradient>
<radialGradient id="glow" cx="50%" cy="38%" r="55%"><stop offset="0" stop-color="#ed1d69" stop-opacity="0.62"/><stop offset="1" stop-color="#bd0f4f" stop-opacity="0"/></radialGradient>
<radialGradient id="b0"><stop offset="0" stop-color="#f55847"/><stop offset="0.6" stop-color="#f55847" stop-opacity="0.45"/><stop offset="1" stop-color="#f55847" stop-opacity="0"/></radialGradient><radialGradient id="b1"><stop offset="0.55" stop-color="#f547aa" stop-opacity="0.2"/><stop offset="0.85" stop-color="#f547aa" stop-opacity="0.75"/><stop offset="1" stop-color="#f547aa" stop-opacity="0"/></radialGradient><radialGradient id="b2"><stop offset="0" stop-color="#f5477b"/><stop offset="0.6" stop-color="#f5477b" stop-opacity="0.45"/><stop offset="1" stop-color="#f5477b" stop-opacity="0"/></radialGradient><radialGradient id="b3"><stop offset="0.55" stop-color="#f55847" stop-opacity="0.2"/><stop offset="0.85" stop-color="#f55847" stop-opacity="0.75"/><stop offset="1" stop-color="#f55847" stop-opacity="0"/></radialGradient><radialGradient id="b4"><stop offset="0" stop-color="#f547aa"/><stop offset="0.6" stop-color="#f547aa" stop-opacity="0.45"/><stop offset="1" stop-color="#f547aa" stop-opacity="0"/></radialGradient><radialGradient id="b5"><stop offset="0.55" stop-color="#f5477b" stop-opacity="0.2"/><stop offset="0.85" stop-color="#f5477b" stop-opacity="0.75"/><stop offset="1" stop-color="#f5477b" stop-opacity="0"/></radialGradient><radialGradient id="b6"><stop offset="0" stop-color="#f55847"/><stop offset="0.6" stop-color="#f55847" stop-opacity="0.45"/><stop offset="1" stop-color="#f55847" stop-opacity="0"/></radialGradient><radialGradient id="b7"><stop offset="0.55" stop-color="#f547aa" stop-opacity="0.2"/><stop offset="0.85" stop-color="#f547aa" stop-opacity="0.75"/><stop offset="1" stop-color="#f547aa" stop-opacity="0"/></radialGradient><radialGradient id="b8"><stop offset="0" stop-color="#f5477b"/><stop offset="0.6" stop-color="#f5477b" stop-opacity="0.45"/><stop offset="1" stop-color="#f5477b" stop-opacity="0"/></radialGradient>
<linearGradient id="floor" x1="0" y1="0" x2="0" y2="1"><stop offset="0" stop-color="#4d192c" stop-opacity="0.55"/><stop offset="1" stop-color="#05060d" stop-opacity="0.95"/></linearGradient>
<radialGradient id="vig" cx="50%" cy="45%" r="75%"><stop offset="0.55" stop-color="#000" stop-opacity="0"/><stop offset="1" stop-color="#000" stop-opacity="0.6"/></radialGradient>
<linearGradient id="fade" x1="0" y1="0" x2="0" y2="1"><stop offset="0" stop-color="#fff" stop-opacity="0.9"/><stop offset="1" stop-color="#fff" stop-opacity="0"/></linearGradient>
<mask id="refl"><rect x="0" y="170" width="330" height="80" fill="url(#fade)"/></mask>
</defs>
<rect width="330" height="250" fill="url(#bg)"/>
<rect width="330" height="250" fill="url(#glow)"/>
<circle cx="168" cy="97" r="21" fill="url(#b0)" opacity="0.60"/><circle cx="43" cy="82" r="18" fill="url(#b1)" opacity="0.47"/><circle cx="238" cy="64" r="8" fill="url(#b2)" opacity="0.69"/><circle cx="258" cy="119" r="24" fill="url(#b3)" opacity="0.70"/><circle cx="87" cy="131" r="11" fill="url(#b4)" opacity="0.80"/><circle cx="205" cy="18" r="8" fill="url(#b5)" opacity="0.59"/><circle cx="101" cy="47" r="9" fill="url(#b6)" opacity="0.66"/><circle cx="143" cy="102" r="21" fill="url(#b7)" opacity="0.68"/><circle cx="169" cy="83" r="14" fill="url(#b8)" opacity="0.76"/>
<rect y="170" width="330" height="80" fill="url(#floor)"/>
<rect y="169.5" width="330" height="1" fill="#f76ea0" opacity="0.35"/>
<g mask="url(#refl)"><g transform="translate(110 213) scale(4.6 -4.6)" fill="none" stroke="#fa9ec0" stroke-width="1.5" stroke-linecap="round" stroke-linejoin="round" opacity="0.22">
  <path d="M2 9.5a5.5 5.5 0 0 1 9.591-3.676.56.56 0 0 0 .818 0A5.49 5.49 0 0 1 22 9.5c0 2.29-1.5 4-3 5.5l-5.492 5.313a2 2 0 0 1-3 .019L5 15c-1.5-1.5-3-3.2-3-5.5" />
</g></g>
<g transform="translate(110 57) scale(4.6)" fill="none" stroke="#ff669e" stroke-width="2.4" stroke-linecap="round" stroke-linejoin="round" opacity="0.28">
  <path d="M2 9.5a5.5 5.5 0 0 1 9.591-3.676.56.56 0 0 0 .818 0A5.49 5.49 0 0 1 22 9.5c0 2.29-1.5 4-3 5.5l-5.492 5.313a2 2 0 0 1-3 .019L5 15c-1.5-1.5-3-3.2-3-5.5" />
</g>
<g transform="translate(110 57) scale(4.6)" fill="none" stroke="#fdd8e6" stroke-width="1.25" stroke-linecap="round" stroke-linejoin="round" opacity="0.95">
  <path d="M2 9.5a5.5 5.5 0 0 1 9.591-3.676.56.56 0 0 0 .818 0A5.49 5.49 0 0 1 22 9.5c0 2.29-1.5 4-3 5.5l-5.492 5.313a2 2 0 0 1-3 .019L5 15c-1.5-1.5-3-3.2-3-5.5" />
</g>
<rect width="330" height="250" fill="url(#vig)"/>
</svg>
